# xmcd
#
# Track frame offsets:
#	150
#	21317
#	36815
#	56506
#	78904
#	93131
#	111271
#	128546
#	149003
#	163643
#	182125
#	193460
#	212052
#
# Disc length: 3058 seconds
#
# Revision: 1
# Processed by: cddbd v1.5.2PL0 Copyright (c) Steve Scherf et al.
# Submitted via: audiograbber 1.83.01
#
DISCID=b60bf00d
DTITLE=Don Cambell - Amercan Garage
DYEAR=2008
DGENRE=Country
TTITLE0=Tilt a Whirl
TTITLE1=Cut of My Ear
TTITLE2=Red, White and Blue Heart
TTITLE3=Beautiful Rain
TTITLE4=Faster Then Lightnin'
TTITLE5=My Old Garage
TTITLE6=The Hero in Me
TTITLE7=Lte It Show
TTITLE8=Finding Your Way Home
TTITLE9=You And Me
TTITLE10=Heavens Open Up Now
TTITLE11=Ol"55
TTITLE12=Two Out of Three Ain't Bad
EXTD=
EXTT0=
EXTT1=
EXTT2=
EXTT3=
EXTT4=
EXTT5=
EXTT6=
EXTT7=
EXTT8=
EXTT9=
EXTT10=
EXTT11=
EXTT12=
PLAYORDER=
